<?xml version="1.0" encoding="UTF-8"?>
<svg xmlns="http://www.w3.org/2000/svg" xmlns:xlink="http://www.w3.org/1999/xlink" width="60px" height="60px" viewBox="0 0 60 60" version="1.1">
<g id="surface1">
<path style=" stroke:none;fill-rule:evenodd;fill:rgb(13.725491%,12.156863%,12.54902%);fill-opacity:1;" d="M 37.4375 19.734375 L 37.4375 37.539062 L 22.511719 37.539062 L 22.472656 19.734375 L 4.777344 19.734375 L 4.777344 4.796875 L 55.226562 4.796875 L 55.226562 19.734375 Z M 4.746094 37.527344 L 4.757812 22.5625 L 19.679688 22.5625 L 19.679688 40.328125 L 40.304688 40.328125 L 40.304688 22.5625 L 55.207031 22.5625 L 55.207031 37.515625 C 55.21875 47.699219 46.769531 55.210938 37.445312 55.222656 L 22.492188 55.222656 C 13.398438 54.363281 4.71875 47.535156 4.746094 37.527344 Z M 1.976562 1.976562 L 58.023438 1.976562 L 58.023438 37.523438 C 58.023438 47.394531 50.144531 58.023438 37.4375 58.023438 L 22.5 58.023438 C 11.175781 58.023438 1.964844 48.726562 1.976562 37.523438 Z M 1.199219 1.199219 L 58.800781 1.199219 L 58.800781 37.734375 C 58.800781 47.875 50.699219 58.800781 37.640625 58.800781 L 22.292969 58.800781 C 10.652344 58.800781 1.1875 49.242188 1.199219 37.734375 Z M 1.199219 1.199219 "/>
</g>
</svg>
